<svg width="1440" height="760" viewBox="0 0 1440 760" fill="none" xmlns="http://www.w3.org/2000/svg">
<path d="M537.823 564.468C437.019 564.032 366.721 642.464 308.361 713.489C243.369 792.356 173.071 863.816 61.6558 866.431C37.339 866.866 3.29544 862.509 -18.8107 838.108C-57.7177 795.406 -42.2433 735.711 -30.306 686.473C5.94815 533.531 38.2232 294.749 -151.89 226.775C-181.07 216.317 -211.135 205.424 -229.704 181.894C-320.781 65.5536 -200.966 -19.85 -96.1824 -56.8873C8.60095 -93.9246 126.206 -116.583 223.031 -177.15C326.046 -241.638 371.142 -375.408 490.958 -416.803C525.444 -428.567 558.603 -425.517 582.036 -408.524C611.658 -387.173 625.806 -349.264 633.764 -323.12C669.134 -207.215 572.751 -92.6174 615.195 22.4161C642.607 96.9265 713.788 147.907 779.665 188.43C1186 306.07 1062 450.973 1524 789.572C1140.5 603.404 921.5 467.237 537.823 564.468Z" fill="url(#paint0_linear_112_151)"/>
<defs>
<linearGradient id="paint0_linear_112_151" x1="7.30159e-06" y1="7.00002" x2="1445" y2="760.5" gradientUnits="userSpaceOnUse">
<stop stop-color="#021324"/>
<stop offset="1" stop-color="#013849"/>
</linearGradient>
</defs>
</svg>
